<svg id="Layer_2" viewBox="0 0 512 512" xmlns="http://www.w3.org/2000/svg" data-name="Layer 2"><g id="Icon"><g id="_03" data-name="03"><rect id="Background" fill="#1770ff" height="512" rx="150" width="512"/><path d="m273.1 419.67c-7.79 0-15.91-2-24.12-5.93-8.39-4.01-14.24-8.23-17.86-12.89-4.76-6.12-5.79-13.39-2.88-20.05l14.76-43.93h-31.12s-23.38 68.92-23.4 68.97c-1.73 4.83-6.89 12.93-22.01 12.93-8.39 0-16.81-2-25.02-5.93-8.39-4.01-14.24-8.23-17.86-12.89-4.76-6.12-5.79-13.38-2.89-20.04l14.35-43.04h-19.88c-3.97 0-11.38-1.33-16.63-10.17-3.67-5.78-5.52-12.53-5.52-20.08 0-6.15.33-11.75.99-16.63.82-6.16 3.04-11.73 6.6-16.54 5.38-7.28 11.69-8.81 16.04-8.81.38 0 .76.01 1.14.04h41.95l9.02-26.8h-37.38c-3.97 0-11.38-1.33-16.63-10.17-3.67-5.78-5.52-12.53-5.52-20.08 0-6.15.33-11.75.99-16.63.82-6.16 3.04-11.73 6.6-16.54 5.38-7.28 11.69-8.81 16.04-8.81.38 0 .76.01 1.14.04h59.08l20.19-59.37c.03-.1.07-.2.1-.29 1.92-5.11 7.56-13.69 23.76-13.69 7.33 0 15.18 1.79 23.33 5.33 23.78 10.58 25.17 22.65 22.09 30.98l-12.57 37.04h31.06l19.76-58.88c.03-.08.05-.16.08-.23 1.85-5.08 7.16-13.61 21.99-13.61 3.45 0 7.21.45 11.47 1.38 15.09 2.9 25.52 8.18 31.9 16.15 6.53 7.99 5.29 15.29 3.85 19.11l-12.1 35.64h17.09c5.85 0 16.37 2.63 21.29 20.23 1.76 5.7 2.66 11.27 2.66 16.55s-.54 10.01-1.61 14.63c-4.37 18.11-15.31 20.8-21.44 20.8h-42.76l-9.02 26.8h34.68c5.85 0 16.37 2.63 21.29 20.23 1.76 5.7 2.66 11.26 2.66 16.55s-.54 10.01-1.61 14.62c0 .03-.02.07-.02.1-4.35 18.01-15.29 20.7-21.42 20.7l-60.3.4-23.37 69.29c-.06.17-.12.35-.19.52-1.95 4.87-7.5 13.04-22.79 13.04zm-2.69-150.95 11.73-34.9h-40.1l-11.73 34.9z" fill="#003c72"/><path d="m378.85 274.23c5.4 0 9.3 4.35 11.7 13.05 1.5 4.8 2.25 9.38 2.25 13.73s-.45 8.48-1.35 12.38c-2.1 8.7-6 13.05-11.7 13.05l-67.5.45-25.65 76.05c-1.8 4.5-6.3 6.75-13.5 6.75-6.3 0-12.9-1.65-19.8-4.95-13.8-6.6-19.05-13.35-15.75-20.25l19.35-57.6h-52.2l-25.65 75.6c-1.5 4.21-5.7 6.3-12.6 6.3s-13.8-1.65-20.7-4.95c-13.8-6.59-19.05-13.34-15.75-20.25l18.9-56.7h-33.75c-3.3 0-6-1.8-8.1-5.4-2.7-4.2-4.05-9.15-4.05-14.85s.29-10.8.9-15.3c.6-4.5 2.17-8.47 4.73-11.92 2.54-3.45 5.47-5.02 8.77-4.72h49.5l15.75-46.8h-51.3c-3.3 0-6-1.8-8.1-5.4-2.7-4.2-4.05-9.15-4.05-14.85s.29-10.8.9-15.3c.6-4.5 2.17-8.47 4.73-11.92 2.54-3.45 5.47-5.02 8.77-4.72h66.6l22.5-66.15c1.8-4.79 6.59-7.2 14.4-7.2 6 0 12.45 1.5 19.35 4.5 13.5 6 19.05 12.15 16.65 18.45l-17.1 50.4h52.2l22.05-65.7c2.4-6.6 9.75-8.55 22.05-5.85 12.6 2.41 21.3 6.6 26.1 12.6 2.7 3.3 3.45 6.45 2.25 9.45l-16.65 49.05h31.05c5.4 0 9.29 4.35 11.7 13.05 1.5 4.8 2.25 9.38 2.25 13.72s-.45 8.48-1.35 12.38c-2.1 8.71-6 13.05-11.7 13.05h-49.95l-15.75 46.8h48.6zm-144-50.4-18.45 54.9h61.2l18.45-54.9z" fill="#fff"/></g></g></svg>